<?xml version="1.0" standalone="no"?><!DOCTYPE svg PUBLIC "-//W3C//DTD SVG 1.1//EN" "http://www.w3.org/Graphics/SVG/1.1/DTD/svg11.dtd"><svg t="1626251253614" class="icon" viewBox="0 0 1024 1024" version="1.1" xmlns="http://www.w3.org/2000/svg" p-id="156892" xmlns:xlink="http://www.w3.org/1999/xlink" width="100" height="100"><defs><style type="text/css"></style></defs><path d="M512 0c282.763636 0 512 229.236364 512 512s-229.236364 512-512 512S0 794.763636 0 512 229.236364 0 512 0z m15.057455 235.217455l-239.383273 112.64a34.909091 34.909091 0 0 0-20.037818 31.58109V738.909091h-26.181819a8.727273 8.727273 0 0 0-8.727272 8.727273v34.909091c0 4.817455 3.909818 8.727273 8.727272 8.727272h541.09091a8.727273 8.727273 0 0 0 8.727272-8.727272v-34.909091a8.727273 8.727273 0 0 0-8.727272-8.727273H756.363636V459.170909c0-10.333091-6.097455-19.712-15.546181-23.924364l-117.015273-52.014545a17.454545 17.454545 0 0 0-24.529455 15.988364V738.909091h-34.909091V258.862545a26.181818 26.181818 0 0 0-37.306181-23.64509z m-41.239273 372.759272V651.636364h-139.636364v-43.636364h139.636364z m0-113.454545v43.636363h-139.636364V494.545455h139.636364z" p-id="156893" fill="#f3ca7e"></path></svg>