<svg id="图层_1" data-name="图层 1" xmlns="http://www.w3.org/2000/svg" viewBox="0 0 100 100"><defs><style>.cls-1{fill:#e1edff;}.cls-2{fill:#ffddb8;}.cls-3{fill:#ebccaa;}.cls-4{fill:#634335;}.cls-5{fill:#333;}.cls-6{fill:#555;}.cls-7{fill:#fff;}.cls-8{fill:#e0ecff;}.cls-9{fill:#7fb2ff;}</style></defs><path class="cls-1" d="M50,0A50,50,0,1,1,0,50,50,50,0,0,1,50,0Z"/><path class="cls-2" d="M56.31,80.23,42.8,80.16V64.47H56.31Z"/><path class="cls-3" d="M56.31,70.29l-13.51,8V64.48H56.31Z"/><path class="cls-2" d="M49.6,27.5h.16c9.92,0,18.62,9.67,18.62,21.59S56.52,70.66,49.76,70.66H49.6Z"/><path class="cls-2" d="M49.76,27.5H49.6c-10,0-18.78,9.67-18.78,21.59s12,21.58,18.78,21.58h.16Z"/><path class="cls-4" d="M28.74,43c-.32-5.6-.64-13.51,1.6-18.45s14.09-10.22,19.2-10.22,15,4.94,17.29,7.91C68.15,24,70.17,33.52,70,41.66c-.09,5.72-1,7.93-1.91,9.56-.46.81.63-10.55-9.6-19.45-1.6-1-3.1.62-5.13,1a48,48,0,0,1-9,.66c-3,0-8.49,3.83-9.92,7.58a25.87,25.87,0,0,0-1.92,11.53A17.19,17.19,0,0,1,28.73,43Z"/><path class="cls-2" d="M28.62,49.33c.81,2.6,2.53,4.38,3.83,4s1.71-2.86.89-5.46-2.53-4.38-3.83-4S27.81,46.72,28.62,49.33Z"/><path class="cls-5" d="M44.34,99.68a49.7,49.7,0,0,1-21-7.37,49.81,49.81,0,0,1,2.83-5.48c2.31-3.63,10.54-7.25,10.54-7.25l12.85-2.31V99.68Z"/><path class="cls-6" d="M49.6,99.68V77.26l12.85,2.31S70.69,83.2,73,86.83a52.59,52.59,0,0,1,3,5.89,49.55,49.55,0,0,1-20.34,7Z"/><path class="cls-2" d="M66.41,52.65c1.31.41,3-1.38,3.84-4s.41-5.05-.89-5.45-3,1.37-3.84,4S65.11,52.24,66.41,52.65Z"/><path class="cls-7" d="M61.2,78.73,54.66,99.66l-4.87.24,0-22.64Z"/><path class="cls-8" d="M38,78.73l6.54,20.93,5.21.26-.3-22.66Z"/><path class="cls-9" d="M47.94,89.79,42.46,77.6l6.92-.33,7.25.33L51,89.79l1,10.09H47.09Z"/><path class="cls-7" d="M41.9,72.63l7.58,4.61L36.94,87.13V77.24Zm15.17,0-7.58,4.61L62,87.13V77.24Z"/></svg>