<svg id="图层_1" data-name="图层 1" xmlns="http://www.w3.org/2000/svg" viewBox="0 0 99.59 99.61"><defs><style>.cls-1{fill:#ffe6e9;}.cls-2{fill:#fccca7;}.cls-3{fill:#efad7d;}.cls-4{fill:#653c1c;}.cls-5{fill:#fcd3b2;}.cls-6{fill:#515151;}.cls-7{fill:#333;}.cls-8{fill:#e0ecff;}.cls-9{fill:#fff;}.cls-10{fill:#ffdabe;}</style></defs><path class="cls-1" d="M50.09.39A49.8,49.8,0,1,1,.29,50.18,49.68,49.68,0,0,1,50.09.39Z" transform="translate(-0.29 -0.39)"/><path class="cls-2" d="M45,78.51l3.23,4.73-.14.06,2,2.34,2.64-2.84h.09l4.39-6.52V71.15S45,78.51,45,78.51Z" transform="translate(-0.29 -0.39)"/><path class="cls-3" d="M57.16,71.2V68.86a19.33,19.33,0,0,1-6.88,2.58h-.09a20.61,20.61,0,0,1-6.48-2.58l-.15,7.66,1.4,2Z" transform="translate(-0.29 -0.39)"/><path class="cls-4" d="M68.11,85.09l-7.82-7.27c5,1.05,6.33,8.71,11.06,10.61a44.19,44.19,0,0,0,4.58-1c.14-.1-.35-4.48-.25-4.29A39.41,39.41,0,0,1,77.48,87c2.09-2.64,3.68-4.63,4.18-7.76l-2.34-3,2.89,2,1.84-4.38s-6.87-4.09-8.71-9.07C74.1,61.64,73.6,44.46,73.6,44.46a31,31,0,0,0-2.44-9c-.14-.3-.24-.6-.4-.9C65,18.77,50.15,21.9,50.15,21.9c-9.87-.85-14.4,3.49-17.78,9.16A23.73,23.73,0,0,0,30.19,35c-2.45,5.53-3.69,13.5-2.64,25,0,0,1.09,15.73,7.37,23.2,2.09-.9,3.39-4.28,5.48-5.08,4.29.05,2.54.2,3.23-1.68.95-2,.7-5.28.15-7.67A26.82,26.82,0,0,1,41,66.42c-.9-.8-6.43-5.92-7-8.91l-.15-.3c0-.2,0-.36-.1-.55a2.65,2.65,0,0,1-1.94-.3,4.06,4.06,0,0,1-1.69-3.14,4.76,4.76,0,0,1,.55-3.29C51.55,47.09,50.11,33.8,50.11,33.8c1,10.55,13.92,14.54,19.74,15.89,1.24,2.29.25,6.76-2.58,6.92a.81.81,0,0,1-.36,0c-.09.4-.19.74-.3,1.14-1.24,4.58-4.33,7.07-8,10.21a12.61,12.61,0,0,1-2,1.35c.15,2-.24,5.27.6,7C58.15,76.38,67.71,84.14,68.11,85.09Z" transform="translate(-0.29 -0.39)"/><path class="cls-5" d="M56.11,69.85a23.32,23.32,0,0,0,2.64-1.94c3.68-3.09,6.67-5.53,7.87-10.11.1-.35.2-.74.3-1.14a.87.87,0,0,0,.36.05c2.84-.15,3.83-4.63,2.58-6.93C64,48.44,51.09,44.45,50.1,33.9c0,0,1.44,13.29-19.43,16.13h0a5,5,0,0,0-.55,3.29,4,4,0,0,0,1.69,3.13,2.66,2.66,0,0,0,1.94.31c0,.19,0,.35.1.54a.47.47,0,0,0,.15.31c.59,3,6.12,8.11,7,8.91a16.65,16.65,0,0,0,2.44,2.09C46.3,70.7,51.39,73.13,56.11,69.85Z" transform="translate(-0.29 -0.39)"/><path class="cls-6" d="M66.37,83.35,68,87.23,60.09,85c-1.74,4.72-4.79,12.64-5.68,14.78,6.27-.45,14.29-2.54,20.07-6.07A25.62,25.62,0,0,0,66.37,83.35Z" transform="translate(-0.29 -0.39)"/><path class="cls-7" d="M33,87.53l1.85-4.68a20.44,20.44,0,0,0-8.92,11c5.83,3.13,11.45,4.93,19.81,6C45,98.19,42,90.57,40.18,85.55Z" transform="translate(-0.29 -0.39)"/><path class="cls-8" d="M50.19,85.79,50,85.64l-1.85-2.39-8,2.24c1.84,5,4.72,12.69,5.57,14.44.8,0,1.59,0,2.39,0s1.35,0,2,0V85.79Z" transform="translate(-0.29 -0.39)"/><path class="cls-9" d="M67.91,87.22,66.37,83.4l-2-4.93-7.26-2.35,0,0-4.39,6.52h-.09L50,85.54l.15.14V100c1.44,0,2.94,0,4.33-.2,1-2.14,3.84-10.06,5.58-14.78ZM40.18,85.49l7.87-2.19.14,0L45,78.51l-1.24-1.84-.15-.2-7.16,2.3-1.6,4.08L33,87.53Z" transform="translate(-0.29 -0.39)"/><path class="cls-10" d="M50.09,34.25V33.9S51.53,47.19,30.66,50h0a5,5,0,0,0-.55,3.29,4,4,0,0,0,1.69,3.13,2.66,2.66,0,0,0,1.94.31c0,.19,0,.35.1.54a.47.47,0,0,0,.15.31c.59,3,6.12,8.11,7,8.91a16.65,16.65,0,0,0,2.44,2.09,14.62,14.62,0,0,0,6.82,2.84Z" transform="translate(-0.29 -0.39)"/></svg>